<svg xmlns="http://www.w3.org/2000/svg" xmlns:xlink="http://www.w3.org/1999/xlink" width="500" zoomAndPan="magnify" viewBox="0 0 375 374.999991" height="500" preserveAspectRatio="xMidYMid meet" version="1.2"><defs><clipPath id="dffdeb201a"><path d="M 37.5 37.5 L 337.5 37.5 L 337.5 337.5 L 37.5 337.5 Z M 37.5 37.5 "/></clipPath><clipPath id="7786f5488b"><path d="M 187.5 37.5 C 104.65625 37.5 37.5 104.65625 37.5 187.5 C 37.5 270.34375 104.65625 337.5 187.5 337.5 C 270.34375 337.5 337.5 270.34375 337.5 187.5 C 337.5 104.65625 270.34375 37.5 187.5 37.5 Z M 187.5 37.5 "/></clipPath><clipPath id="94ec60fa86"><path d="M 0.5 0.5 L 300.5 0.5 L 300.5 300.5 L 0.5 300.5 Z M 0.5 0.5 "/></clipPath><clipPath id="43778ac008"><path d="M 150.5 0.5 C 67.65625 0.5 0.5 67.65625 0.5 150.5 C 0.5 233.34375 67.65625 300.5 150.5 300.5 C 233.34375 300.5 300.5 233.34375 300.5 150.5 C 300.5 67.65625 233.34375 0.5 150.5 0.5 Z M 150.5 0.5 "/></clipPath><clipPath id="4d02e3c4d1"><rect x="0" width="301" y="0" height="301"/></clipPath><clipPath id="b580b1d433"><path d="M 84 89 L 286 89 L 286 257 L 84 257 Z M 84 89 "/></clipPath><clipPath id="246aee5ecb"><path d="M 84.769531 88.777344 L 288.753906 106.441406 L 271.609375 304.453125 L 67.621094 286.789062 Z M 84.769531 88.777344 "/></clipPath><clipPath id="8c4db9e33a"><path d="M 84.769531 88.777344 L 288.753906 106.441406 L 271.609375 304.453125 L 67.621094 286.789062 Z M 84.769531 88.777344 "/></clipPath><clipPath id="9dda9e8ed1"><path d="M 120 258 L 156 258 L 156 293 L 120 293 Z M 120 258 "/></clipPath><clipPath id="ccf10a2588"><path d="M 84.769531 88.777344 L 288.753906 106.441406 L 271.609375 304.453125 L 67.621094 286.789062 Z M 84.769531 88.777344 "/></clipPath><clipPath id="a321acee04"><path d="M 84.769531 88.777344 L 288.753906 106.441406 L 271.609375 304.453125 L 67.621094 286.789062 Z M 84.769531 88.777344 "/></clipPath><clipPath id="017a35bb95"><path d="M 217 267 L 253 267 L 253 302 L 217 302 Z M 217 267 "/></clipPath><clipPath id="1a870d8663"><path d="M 84.769531 88.777344 L 288.753906 106.441406 L 271.609375 304.453125 L 67.621094 286.789062 Z M 84.769531 88.777344 "/></clipPath><clipPath id="f9df50adce"><path d="M 84.769531 88.777344 L 288.753906 106.441406 L 271.609375 304.453125 L 67.621094 286.789062 Z M 84.769531 88.777344 "/></clipPath></defs><g id="4e51a3e42a"><g clip-rule="nonzero" clip-path="url(#dffdeb201a)"><g clip-rule="nonzero" clip-path="url(#7786f5488b)"><g transform="matrix(1,0,0,1,37,37)"><g clip-path="url(#4d02e3c4d1)"><g clip-rule="nonzero" clip-path="url(#94ec60fa86)"><g clip-rule="nonzero" clip-path="url(#43778ac008)"><path style=" stroke:none;fill-rule:nonzero;fill:#fe800f;fill-opacity:1;" d="M 0.5 0.5 L 300.5 0.5 L 300.5 300.5 L 0.5 300.5 Z M 0.5 0.5 "/></g></g></g></g></g></g><g clip-rule="nonzero" clip-path="url(#b580b1d433)"><g clip-rule="nonzero" clip-path="url(#246aee5ecb)"><g clip-rule="nonzero" clip-path="url(#8c4db9e33a)"><path style=" stroke:none;fill-rule:nonzero;fill:#0b0e12;fill-opacity:1;" d="M 284.015625 139.03125 C 282.566406 136.925781 280.25 135.582031 277.703125 135.359375 L 132.070312 122.75 L 127.101562 98.59375 C 126.335938 94.882812 123.226562 92.113281 119.449219 91.785156 L 93.394531 89.53125 C 88.679688 89.121094 84.527344 92.613281 84.117188 97.328125 C 83.710938 102.042969 87.199219 106.191406 91.914062 106.601562 L 111.605469 108.304688 L 134.226562 218.21875 C 130.21875 224.257812 126.152344 233.050781 129.214844 240.976562 C 131.925781 247.992188 139.070312 252.050781 150.445312 253.035156 C 150.652344 253.054688 150.859375 253.0625 151.066406 253.058594 C 151.8125 253.054688 225.929688 252.683594 251.160156 256.3125 C 254.839844 256.832031 258.285156 254.28125 258.816406 250.582031 C 259.347656 246.882812 256.78125 243.453125 253.082031 242.925781 C 227.464844 239.246094 157.410156 239.503906 151.316406 239.53125 C 145.078125 238.949219 142.308594 237.328125 141.835938 236.105469 C 141.304688 234.742188 141.976562 232.308594 143.300781 229.601562 C 143.480469 229.609375 143.660156 229.621094 143.847656 229.613281 L 256.421875 225.785156 C 260.140625 225.660156 263.355469 223.140625 264.371094 219.5625 L 285.203125 146.238281 C 285.902344 143.777344 285.464844 141.136719 284.015625 139.03125 Z M 218.59375 175.082031 L 183.554688 172.046875 L 185.929688 144.613281 L 220.96875 147.644531 Z M 143.175781 176.695312 L 174.769531 179.433594 L 171.992188 211.511719 L 150.492188 212.246094 Z M 182.855469 180.132812 L 217.894531 183.167969 L 215.566406 210.03125 L 180.164062 211.234375 Z M 258.222656 178.511719 L 226.679688 175.78125 L 229.054688 148.347656 L 265.890625 151.535156 Z M 177.847656 143.910156 L 175.46875 171.347656 L 141.46875 168.402344 L 135.675781 140.261719 Z M 223.738281 209.75 L 225.980469 183.867188 L 255.964844 186.464844 L 249.597656 208.871094 Z M 223.738281 209.75 "/></g></g></g><g clip-rule="nonzero" clip-path="url(#9dda9e8ed1)"><g clip-rule="nonzero" clip-path="url(#ccf10a2588)"><g clip-rule="nonzero" clip-path="url(#a321acee04)"><path style=" stroke:none;fill-rule:nonzero;fill:#0b0e12;fill-opacity:1;" d="M 154.984375 277.238281 C 154.9375 277.796875 154.859375 278.351562 154.757812 278.902344 C 154.65625 279.453125 154.527344 280 154.371094 280.539062 C 154.210938 281.078125 154.03125 281.605469 153.820312 282.125 C 153.613281 282.648438 153.378906 283.15625 153.121094 283.652344 C 152.863281 284.152344 152.582031 284.632812 152.273438 285.105469 C 151.96875 285.574219 151.640625 286.027344 151.289062 286.464844 C 150.941406 286.902344 150.570312 287.320312 150.175781 287.722656 C 149.785156 288.125 149.375 288.503906 148.945312 288.867188 C 148.515625 289.226562 148.070312 289.566406 147.609375 289.882812 C 147.144531 290.199219 146.667969 290.492188 146.175781 290.761719 C 145.6875 291.035156 145.183594 291.277344 144.667969 291.5 C 144.152344 291.71875 143.628906 291.914062 143.09375 292.082031 C 142.558594 292.253906 142.015625 292.394531 141.46875 292.511719 C 140.917969 292.628906 140.367188 292.714844 139.808594 292.777344 C 139.253906 292.839844 138.691406 292.871094 138.132812 292.878906 C 137.570312 292.886719 137.011719 292.867188 136.453125 292.816406 C 135.894531 292.769531 135.339844 292.691406 134.789062 292.589844 C 134.238281 292.488281 133.695312 292.359375 133.15625 292.199219 C 132.617188 292.042969 132.085938 291.863281 131.566406 291.652344 C 131.046875 291.445312 130.539062 291.210938 130.039062 290.953125 C 129.542969 290.695312 129.058594 290.414062 128.589844 290.105469 C 128.117188 289.800781 127.664062 289.472656 127.226562 289.121094 C 126.789062 288.773438 126.371094 288.402344 125.96875 288.007812 C 125.570312 287.617188 125.1875 287.207031 124.828125 286.777344 C 124.464844 286.347656 124.128906 285.902344 123.8125 285.441406 C 123.492188 284.976562 123.199219 284.5 122.929688 284.007812 C 122.660156 283.519531 122.414062 283.015625 122.195312 282.5 C 121.972656 281.984375 121.777344 281.460938 121.609375 280.925781 C 121.441406 280.390625 121.296875 279.847656 121.183594 279.300781 C 121.066406 278.75 120.976562 278.199219 120.914062 277.640625 C 120.855469 277.085938 120.820312 276.523438 120.8125 275.964844 C 120.808594 275.402344 120.828125 274.84375 120.875 274.285156 C 120.925781 273.726562 121 273.171875 121.101562 272.621094 C 121.207031 272.070312 121.335938 271.527344 121.492188 270.988281 C 121.648438 270.449219 121.832031 269.917969 122.039062 269.398438 C 122.246094 268.878906 122.480469 268.371094 122.738281 267.871094 C 123 267.375 123.28125 266.890625 123.585938 266.421875 C 123.890625 265.949219 124.21875 265.496094 124.570312 265.058594 C 124.921875 264.621094 125.292969 264.203125 125.683594 263.800781 C 126.074219 263.402344 126.488281 263.019531 126.914062 262.660156 C 127.34375 262.296875 127.789062 261.960938 128.253906 261.644531 C 128.714844 261.324219 129.191406 261.03125 129.683594 260.761719 C 130.175781 260.492188 130.679688 260.246094 131.195312 260.027344 C 131.710938 259.804688 132.234375 259.609375 132.769531 259.441406 C 133.304688 259.273438 133.84375 259.128906 134.394531 259.015625 C 134.941406 258.898438 135.496094 258.808594 136.050781 258.746094 C 136.609375 258.6875 137.167969 258.652344 137.730469 258.644531 C 138.289062 258.640625 138.847656 258.660156 139.40625 258.707031 C 139.964844 258.757812 140.519531 258.832031 141.070312 258.933594 C 141.625 259.039062 142.167969 259.167969 142.707031 259.324219 C 143.246094 259.480469 143.773438 259.664062 144.292969 259.871094 C 144.816406 260.078125 145.324219 260.3125 145.820312 260.570312 C 146.320312 260.828125 146.800781 261.113281 147.273438 261.417969 C 147.742188 261.722656 148.195312 262.050781 148.632812 262.402344 C 149.070312 262.753906 149.492188 263.125 149.890625 263.515625 C 150.292969 263.90625 150.671875 264.320312 151.035156 264.746094 C 151.394531 265.175781 151.734375 265.621094 152.050781 266.085938 C 152.367188 266.546875 152.660156 267.023438 152.929688 267.515625 C 153.203125 268.007812 153.445312 268.511719 153.667969 269.027344 C 153.886719 269.542969 154.082031 270.066406 154.253906 270.601562 C 154.421875 271.136719 154.5625 271.675781 154.679688 272.226562 C 154.796875 272.773438 154.882812 273.328125 154.945312 273.882812 C 155.007812 274.441406 155.042969 275 155.046875 275.5625 C 155.054688 276.121094 155.035156 276.679688 154.984375 277.238281 Z M 154.984375 277.238281 "/></g></g></g><g clip-rule="nonzero" clip-path="url(#017a35bb95)"><g clip-rule="nonzero" clip-path="url(#1a870d8663)"><g clip-rule="nonzero" clip-path="url(#f9df50adce)"><path style=" stroke:none;fill-rule:nonzero;fill:#0b0e12;fill-opacity:1;" d="M 252.015625 285.640625 C 251.96875 286.199219 251.890625 286.753906 251.789062 287.304688 C 251.6875 287.855469 251.554688 288.402344 251.398438 288.941406 C 251.242188 289.480469 251.0625 290.007812 250.851562 290.527344 C 250.644531 291.050781 250.410156 291.558594 250.152344 292.054688 C 249.894531 292.554688 249.613281 293.035156 249.304688 293.507812 C 249 293.976562 248.671875 294.429688 248.320312 294.867188 C 247.96875 295.304688 247.597656 295.722656 247.207031 296.125 C 246.816406 296.527344 246.40625 296.90625 245.976562 297.269531 C 245.546875 297.628906 245.101562 297.96875 244.640625 298.285156 C 244.175781 298.601562 243.699219 298.894531 243.207031 299.164062 C 242.71875 299.433594 242.214844 299.679688 241.699219 299.902344 C 241.183594 300.121094 240.65625 300.316406 240.125 300.484375 C 239.589844 300.65625 239.046875 300.796875 238.5 300.914062 C 237.949219 301.03125 237.398438 301.117188 236.839844 301.179688 C 236.28125 301.242188 235.722656 301.273438 235.164062 301.28125 C 234.601562 301.289062 234.042969 301.265625 233.484375 301.21875 C 232.925781 301.171875 232.371094 301.09375 231.820312 300.992188 C 231.269531 300.890625 230.722656 300.757812 230.1875 300.601562 C 229.648438 300.445312 229.117188 300.265625 228.597656 300.054688 C 228.078125 299.847656 227.566406 299.613281 227.070312 299.355469 C 226.574219 299.097656 226.089844 298.816406 225.621094 298.507812 C 225.148438 298.203125 224.695312 297.875 224.257812 297.523438 C 223.820312 297.175781 223.402344 296.804688 223 296.410156 C 222.597656 296.019531 222.21875 295.609375 221.859375 295.179688 C 221.496094 294.75 221.160156 294.304688 220.839844 293.84375 C 220.523438 293.378906 220.230469 292.902344 219.960938 292.410156 C 219.691406 291.921875 219.445312 291.417969 219.222656 290.902344 C 219.003906 290.386719 218.808594 289.863281 218.640625 289.328125 C 218.472656 288.792969 218.328125 288.25 218.210938 287.703125 C 218.097656 287.152344 218.007812 286.601562 217.945312 286.042969 C 217.886719 285.484375 217.851562 284.925781 217.84375 284.367188 C 217.835938 283.804688 217.859375 283.246094 217.90625 282.6875 C 217.957031 282.128906 218.03125 281.574219 218.132812 281.023438 C 218.238281 280.472656 218.367188 279.925781 218.523438 279.390625 C 218.679688 278.851562 218.863281 278.320312 219.070312 277.800781 C 219.277344 277.28125 219.511719 276.773438 219.769531 276.273438 C 220.027344 275.777344 220.3125 275.292969 220.617188 274.824219 C 220.921875 274.351562 221.25 273.898438 221.601562 273.460938 C 221.953125 273.023438 222.324219 272.605469 222.714844 272.203125 C 223.105469 271.804688 223.515625 271.421875 223.945312 271.0625 C 224.375 270.699219 224.820312 270.363281 225.285156 270.042969 C 225.746094 269.726562 226.222656 269.433594 226.714844 269.164062 C 227.207031 268.894531 227.707031 268.648438 228.222656 268.429688 C 228.738281 268.207031 229.265625 268.011719 229.800781 267.84375 C 230.332031 267.675781 230.875 267.53125 231.425781 267.417969 C 231.972656 267.300781 232.523438 267.210938 233.082031 267.148438 C 233.640625 267.089844 234.199219 267.054688 234.757812 267.046875 C 235.320312 267.042969 235.878906 267.0625 236.4375 267.109375 C 236.996094 267.160156 237.550781 267.234375 238.101562 267.335938 C 238.652344 267.441406 239.199219 267.570312 239.738281 267.726562 C 240.273438 267.882812 240.804688 268.066406 241.324219 268.273438 C 241.84375 268.480469 242.355469 268.714844 242.851562 268.972656 C 243.347656 269.230469 243.832031 269.515625 244.304688 269.820312 C 244.773438 270.125 245.226562 270.453125 245.664062 270.804688 C 246.101562 271.15625 246.519531 271.527344 246.921875 271.917969 C 247.324219 272.308594 247.703125 272.71875 248.066406 273.148438 C 248.425781 273.578125 248.765625 274.023438 249.082031 274.488281 C 249.398438 274.949219 249.691406 275.425781 249.960938 275.917969 C 250.230469 276.410156 250.476562 276.914062 250.699219 277.429688 C 250.917969 277.941406 251.113281 278.46875 251.28125 279.003906 C 251.453125 279.539062 251.59375 280.078125 251.710938 280.628906 C 251.824219 281.175781 251.914062 281.730469 251.976562 282.285156 C 252.039062 282.84375 252.070312 283.402344 252.078125 283.960938 C 252.085938 284.523438 252.0625 285.082031 252.015625 285.640625 Z M 252.015625 285.640625 "/></g></g></g></g></svg>