<svg xmlns="http://www.w3.org/2000/svg" xmlns:xlink="http://www.w3.org/1999/xlink" width="500" zoomAndPan="magnify" viewBox="0 0 375 374.999991" height="500" preserveAspectRatio="xMidYMid meet" version="1.2"><defs><clipPath id="bdc3cbee49"><path d="M 77.796875 27.476562 L 297.203125 27.476562 L 297.203125 246.882812 L 77.796875 246.882812 Z M 77.796875 27.476562 "/></clipPath><clipPath id="d984a35021"><path d="M 187.5 27.476562 C 126.914062 27.476562 77.796875 76.59375 77.796875 137.179688 C 77.796875 197.765625 126.914062 246.882812 187.5 246.882812 C 248.085938 246.882812 297.203125 197.765625 297.203125 137.179688 C 297.203125 76.59375 248.085938 27.476562 187.5 27.476562 Z M 187.5 27.476562 "/></clipPath><clipPath id="4f958cb0c7"><path d="M 0.796875 0.476562 L 220.203125 0.476562 L 220.203125 219.882812 L 0.796875 219.882812 Z M 0.796875 0.476562 "/></clipPath><clipPath id="bc8fd6aa0a"><path d="M 110.5 0.476562 C 49.914062 0.476562 0.796875 49.59375 0.796875 110.179688 C 0.796875 170.765625 49.914062 219.882812 110.5 219.882812 C 171.085938 219.882812 220.203125 170.765625 220.203125 110.179688 C 220.203125 49.59375 171.085938 0.476562 110.5 0.476562 Z M 110.5 0.476562 "/></clipPath><clipPath id="dbf997ee4b"><rect x="0" width="221" y="0" height="220"/></clipPath><clipPath id="d760c6140d"><path d="M 111 65 L 260 65 L 260 188 L 111 188 Z M 111 65 "/></clipPath><clipPath id="6cd2af6c84"><path d="M 112.367188 64.980469 L 261.808594 77.921875 L 249.257812 222.878906 L 99.816406 209.9375 Z M 112.367188 64.980469 "/></clipPath><clipPath id="95afe2dc07"><path d="M 112.367188 64.980469 L 261.808594 77.921875 L 249.257812 222.878906 L 99.816406 209.9375 Z M 112.367188 64.980469 "/></clipPath><clipPath id="b3b9e77a80"><path d="M 138 189 L 164 189 L 164 215 L 138 215 Z M 138 189 "/></clipPath><clipPath id="636bb64206"><path d="M 112.367188 64.980469 L 261.808594 77.921875 L 249.257812 222.878906 L 99.816406 209.9375 Z M 112.367188 64.980469 "/></clipPath><clipPath id="22c5b27c33"><path d="M 112.367188 64.980469 L 261.808594 77.921875 L 249.257812 222.878906 L 99.816406 209.9375 Z M 112.367188 64.980469 "/></clipPath><clipPath id="e2b2091669"><path d="M 209 195 L 235 195 L 235 221 L 209 221 Z M 209 195 "/></clipPath><clipPath id="e7238e4bda"><path d="M 112.367188 64.980469 L 261.808594 77.921875 L 249.257812 222.878906 L 99.816406 209.9375 Z M 112.367188 64.980469 "/></clipPath><clipPath id="34aafb2d4e"><path d="M 112.367188 64.980469 L 261.808594 77.921875 L 249.257812 222.878906 L 99.816406 209.9375 Z M 112.367188 64.980469 "/></clipPath><clipPath id="ed497447bd"><rect x="0" width="244" y="0" height="9"/></clipPath></defs><g id="fa67d33e2b"><rect x="0" width="375" y="0" height="374.999991" style="fill:#ffffff;fill-opacity:1;stroke:none;"/><rect x="0" width="375" y="0" height="374.999991" style="fill:#0b0e12;fill-opacity:1;stroke:none;"/><g clip-rule="nonzero" clip-path="url(#bdc3cbee49)"><g clip-rule="nonzero" clip-path="url(#d984a35021)"><g transform="matrix(1,0,0,1,77,27)"><g clip-path="url(#dbf997ee4b)"><g clip-rule="nonzero" clip-path="url(#4f958cb0c7)"><g clip-rule="nonzero" clip-path="url(#bc8fd6aa0a)"><path style=" stroke:none;fill-rule:nonzero;fill:#fe800f;fill-opacity:1;" d="M 0.796875 0.476562 L 220.203125 0.476562 L 220.203125 219.882812 L 0.796875 219.882812 Z M 0.796875 0.476562 "/></g></g></g></g></g></g><g clip-rule="nonzero" clip-path="url(#d760c6140d)"><g clip-rule="nonzero" clip-path="url(#6cd2af6c84)"><g clip-rule="nonzero" clip-path="url(#95afe2dc07)"><path style=" stroke:none;fill-rule:nonzero;fill:#ffffff;fill-opacity:1;" d="M 258.09375 101.734375 C 257.03125 100.195312 255.339844 99.210938 253.476562 99.046875 L 146.964844 89.824219 L 143.332031 72.160156 C 142.773438 69.445312 140.496094 67.417969 137.734375 67.179688 L 118.675781 65.53125 C 115.230469 65.230469 112.191406 67.785156 111.894531 71.230469 C 111.59375 74.679688 114.148438 77.714844 117.597656 78.015625 L 131.996094 79.261719 L 148.542969 159.648438 C 145.609375 164.066406 142.636719 170.496094 144.875 176.292969 C 146.859375 181.421875 152.082031 184.390625 160.40625 185.113281 C 160.554688 185.125 160.707031 185.132812 160.859375 185.128906 C 161.402344 185.128906 215.609375 184.855469 234.0625 187.511719 C 236.753906 187.890625 239.273438 186.023438 239.664062 183.316406 C 240.050781 180.613281 238.175781 178.105469 235.46875 177.71875 C 216.734375 175.027344 165.5 175.214844 161.039062 175.238281 C 156.480469 174.8125 154.453125 173.625 154.105469 172.730469 C 153.71875 171.730469 154.210938 169.953125 155.179688 167.972656 C 155.3125 167.976562 155.441406 167.988281 155.578125 167.984375 L 237.910156 165.183594 C 240.632812 165.089844 242.980469 163.25 243.722656 160.632812 L 258.960938 107.003906 C 259.472656 105.203125 259.152344 103.273438 258.09375 101.734375 Z M 210.246094 128.097656 L 184.621094 125.878906 L 186.355469 105.816406 L 211.984375 108.035156 Z M 155.089844 129.28125 L 178.195312 131.28125 L 176.164062 154.746094 L 160.4375 155.28125 Z M 184.105469 131.792969 L 209.734375 134.011719 L 208.03125 153.660156 L 182.136719 154.539062 Z M 239.230469 130.609375 L 216.160156 128.609375 L 217.898438 108.546875 L 244.835938 110.878906 Z M 180.445312 105.304688 L 178.707031 125.367188 L 153.839844 123.214844 L 149.601562 102.632812 Z M 214.007812 153.457031 L 215.648438 134.523438 L 237.578125 136.421875 L 232.917969 152.8125 Z M 214.007812 153.457031 "/></g></g></g><g clip-rule="nonzero" clip-path="url(#b3b9e77a80)"><g clip-rule="nonzero" clip-path="url(#636bb64206)"><g clip-rule="nonzero" clip-path="url(#22c5b27c33)"><path style=" stroke:none;fill-rule:nonzero;fill:#ffffff;fill-opacity:1;" d="M 163.722656 202.8125 C 163.652344 203.632812 163.503906 204.4375 163.273438 205.226562 C 163.042969 206.015625 162.738281 206.777344 162.359375 207.503906 C 161.980469 208.234375 161.535156 208.921875 161.023438 209.5625 C 160.507812 210.203125 159.9375 210.789062 159.308594 211.316406 C 158.675781 211.847656 158.003906 212.308594 157.28125 212.707031 C 156.5625 213.101562 155.808594 213.421875 155.027344 213.671875 C 154.242188 213.917969 153.441406 214.089844 152.625 214.179688 C 151.808594 214.269531 150.988281 214.277344 150.171875 214.207031 C 149.351562 214.136719 148.546875 213.984375 147.757812 213.757812 C 146.96875 213.527344 146.210938 213.222656 145.480469 212.84375 C 144.75 212.464844 144.066406 212.019531 143.421875 211.503906 C 142.78125 210.992188 142.195312 210.417969 141.667969 209.789062 C 141.136719 209.160156 140.675781 208.484375 140.28125 207.765625 C 139.882812 207.046875 139.5625 206.292969 139.3125 205.507812 C 139.066406 204.726562 138.898438 203.925781 138.808594 203.109375 C 138.714844 202.292969 138.707031 201.472656 138.777344 200.652344 C 138.847656 199.835938 139 199.03125 139.226562 198.242188 C 139.457031 197.453125 139.761719 196.691406 140.140625 195.964844 C 140.519531 195.234375 140.964844 194.546875 141.480469 193.90625 C 141.992188 193.265625 142.566406 192.679688 143.195312 192.152344 C 143.824219 191.621094 144.5 191.160156 145.21875 190.761719 C 145.941406 190.367188 146.691406 190.046875 147.476562 189.796875 C 148.257812 189.550781 149.058594 189.378906 149.875 189.289062 C 150.695312 189.199219 151.511719 189.191406 152.332031 189.261719 C 153.148438 189.332031 153.953125 189.480469 154.742188 189.710938 C 155.53125 189.941406 156.292969 190.246094 157.023438 190.625 C 157.75 191.003906 158.4375 191.449219 159.078125 191.964844 C 159.71875 192.476562 160.304688 193.050781 160.835938 193.679688 C 161.363281 194.308594 161.824219 194.980469 162.222656 195.703125 C 162.617188 196.421875 162.941406 197.175781 163.1875 197.957031 C 163.4375 198.742188 163.605469 199.542969 163.695312 200.359375 C 163.785156 201.175781 163.792969 201.996094 163.722656 202.8125 Z M 163.722656 202.8125 "/></g></g></g><g clip-rule="nonzero" clip-path="url(#e2b2091669)"><g clip-rule="nonzero" clip-path="url(#e7238e4bda)"><g clip-rule="nonzero" clip-path="url(#34aafb2d4e)"><path style=" stroke:none;fill-rule:nonzero;fill:#ffffff;fill-opacity:1;" d="M 234.6875 208.960938 C 234.617188 209.777344 234.46875 210.582031 234.238281 211.371094 C 234.007812 212.160156 233.703125 212.921875 233.324219 213.648438 C 232.945312 214.378906 232.5 215.066406 231.988281 215.707031 C 231.472656 216.347656 230.902344 216.933594 230.273438 217.460938 C 229.644531 217.992188 228.96875 218.453125 228.246094 218.851562 C 227.527344 219.246094 226.773438 219.566406 225.992188 219.816406 C 225.207031 220.0625 224.40625 220.234375 223.589844 220.324219 C 222.773438 220.414062 221.953125 220.421875 221.136719 220.351562 C 220.316406 220.28125 219.511719 220.132812 218.722656 219.902344 C 217.933594 219.671875 217.175781 219.367188 216.445312 218.988281 C 215.714844 218.609375 215.03125 218.164062 214.386719 217.648438 C 213.746094 217.136719 213.160156 216.566406 212.632812 215.933594 C 212.101562 215.304688 211.640625 214.632812 211.246094 213.910156 C 210.847656 213.191406 210.527344 212.4375 210.277344 211.65625 C 210.03125 210.871094 209.863281 210.070312 209.773438 209.253906 C 209.679688 208.4375 209.671875 207.617188 209.742188 206.800781 C 209.8125 205.980469 209.964844 205.175781 210.191406 204.386719 C 210.421875 203.597656 210.726562 202.835938 211.105469 202.109375 C 211.484375 201.378906 211.929688 200.691406 212.445312 200.050781 C 212.960938 199.410156 213.53125 198.824219 214.160156 198.296875 C 214.789062 197.765625 215.464844 197.304688 216.183594 196.910156 C 216.90625 196.511719 217.65625 196.191406 218.441406 195.941406 C 219.222656 195.695312 220.023438 195.523438 220.84375 195.433594 C 221.660156 195.34375 222.476562 195.335938 223.296875 195.40625 C 224.113281 195.476562 224.917969 195.628906 225.707031 195.855469 C 226.496094 196.085938 227.257812 196.390625 227.988281 196.769531 C 228.714844 197.148438 229.402344 197.59375 230.042969 198.109375 C 230.683594 198.621094 231.269531 199.195312 231.800781 199.824219 C 232.328125 200.453125 232.789062 201.128906 233.1875 201.847656 C 233.582031 202.566406 233.90625 203.320312 234.152344 204.105469 C 234.402344 204.886719 234.570312 205.6875 234.660156 206.503906 C 234.75 207.320312 234.761719 208.140625 234.6875 208.960938 Z M 234.6875 208.960938 "/></g></g></g><g style="fill:#ffffff;fill-opacity:1;"><g transform="translate(38.184857, 291.59383)"><path style="stroke:none" d="M 0.1875 -15.9375 L 0.1875 -19.921875 L 14.1875 -19.921875 L 14.1875 -15.9375 L 9.46875 -15.9375 L 9.46875 0 L 4.921875 0 L 4.921875 -15.9375 Z M 0.1875 -15.9375 "/></g></g><g style="fill:#ffffff;fill-opacity:1;"><g transform="translate(53.007449, 291.59383)"><path style="stroke:none" d="M 0.5625 -9.96875 C 0.5625 -12.851562 1.539062 -15.289062 3.5 -17.28125 C 5.46875 -19.28125 7.832031 -20.28125 10.59375 -20.28125 C 13.382812 -20.28125 15.75 -19.285156 17.6875 -17.296875 C 19.632812 -15.304688 20.609375 -12.863281 20.609375 -9.96875 C 20.609375 -7.050781 19.648438 -4.597656 17.734375 -2.609375 C 15.828125 -0.628906 13.445312 0.359375 10.59375 0.359375 C 7.6875 0.359375 5.285156 -0.625 3.390625 -2.59375 C 1.503906 -4.5625 0.5625 -7.019531 0.5625 -9.96875 Z M 5.453125 -9.96875 C 5.453125 -8.925781 5.613281 -7.972656 5.9375 -7.109375 C 6.257812 -6.242188 6.820312 -5.515625 7.625 -4.921875 C 8.425781 -4.328125 9.414062 -4.03125 10.59375 -4.03125 C 12.28125 -4.03125 13.554688 -4.609375 14.421875 -5.765625 C 15.285156 -6.921875 15.71875 -8.320312 15.71875 -9.96875 C 15.71875 -11.59375 15.273438 -12.988281 14.390625 -14.15625 C 13.515625 -15.320312 12.25 -15.90625 10.59375 -15.90625 C 8.957031 -15.90625 7.691406 -15.320312 6.796875 -14.15625 C 5.898438 -12.988281 5.453125 -11.59375 5.453125 -9.96875 Z M 5.453125 -9.96875 "/></g></g><g style="fill:#ffffff;fill-opacity:1;"><g transform="translate(75.386106, 291.59383)"><path style="stroke:none" d="M 5.984375 -12.359375 L 5.984375 0 L 1.453125 0 L 1.453125 -19.921875 L 5.984375 -19.921875 L 13.90625 -7.5625 L 13.953125 -7.5625 L 13.953125 -19.921875 L 18.484375 -19.921875 L 18.484375 0 L 13.953125 0 L 6.03125 -12.359375 Z M 5.984375 -12.359375 "/></g></g><g style="fill:#ffffff;fill-opacity:1;"><g transform="translate(96.533585, 291.59383)"><path style="stroke:none" d="M 19.453125 -11.15625 L 19.453125 -6.828125 C 18.941406 -4.460938 17.816406 -2.671875 16.078125 -1.453125 C 14.335938 -0.242188 12.398438 0.359375 10.265625 0.359375 C 7.578125 0.359375 5.285156 -0.644531 3.390625 -2.65625 C 1.503906 -4.664062 0.5625 -7.097656 0.5625 -9.953125 C 0.5625 -12.847656 1.484375 -15.289062 3.328125 -17.28125 C 5.179688 -19.28125 7.492188 -20.28125 10.265625 -20.28125 C 13.492188 -20.28125 16.050781 -19.144531 17.9375 -16.875 L 14.96875 -13.609375 C 13.90625 -15.316406 12.425781 -16.171875 10.53125 -16.171875 C 9.125 -16.171875 7.925781 -15.5625 6.9375 -14.34375 C 5.945312 -13.132812 5.453125 -11.671875 5.453125 -9.953125 C 5.453125 -8.253906 5.945312 -6.804688 6.9375 -5.609375 C 7.925781 -4.410156 9.125 -3.8125 10.53125 -3.8125 C 11.6875 -3.8125 12.691406 -4.160156 13.546875 -4.859375 C 14.410156 -5.566406 14.84375 -6.5 14.84375 -7.65625 L 10.265625 -7.65625 L 10.265625 -11.15625 Z M 19.453125 -11.15625 "/></g></g><g style="fill:#ffffff;fill-opacity:1;"><g transform="translate(117.753493, 291.59383)"><path style="stroke:none" d="M 11.5625 -19.921875 L 19.609375 0 L 14.71875 0 L 13.25 -3.984375 L 5.671875 -3.984375 L 4.203125 0 L -0.671875 0 L 7.359375 -19.921875 Z M 11.703125 -7.96875 L 9.484375 -13.765625 L 9.4375 -13.765625 L 7.21875 -7.96875 Z M 11.703125 -7.96875 "/></g></g><g style="fill:#ffffff;fill-opacity:1;"><g transform="translate(137.887071, 291.59383)"><path style="stroke:none" d="M 17.90625 0 L 16.96875 -11.8125 L 16.84375 -11.8125 L 12.765625 -0.125 L 10.0625 -0.125 L 5.984375 -11.8125 L 5.859375 -11.8125 L 4.921875 0 L 0.390625 0 L 2.171875 -19.921875 L 7 -19.921875 L 11.421875 -8.421875 L 15.84375 -19.921875 L 20.671875 -19.921875 L 22.453125 0 Z M 17.90625 0 "/></g></g><g style="fill:#ffffff;fill-opacity:1;"><g transform="translate(161.931426, 291.59383)"><path style="stroke:none" d="M 11.5625 -19.921875 L 19.609375 0 L 14.71875 0 L 13.25 -3.984375 L 5.671875 -3.984375 L 4.203125 0 L -0.671875 0 L 7.359375 -19.921875 Z M 11.703125 -7.96875 L 9.484375 -13.765625 L 9.4375 -13.765625 L 7.21875 -7.96875 Z M 11.703125 -7.96875 "/></g></g><g style="fill:#ffffff;fill-opacity:1;"><g transform="translate(182.065004, 291.59383)"><path style="stroke:none" d="M 1.453125 -19.921875 L 8.5625 -19.921875 C 10.476562 -19.921875 12.039062 -19.40625 13.25 -18.375 C 14.457031 -17.351562 15.0625 -15.894531 15.0625 -14 C 15.0625 -12.539062 14.691406 -11.3125 13.953125 -10.3125 C 13.222656 -9.320312 12.234375 -8.628906 10.984375 -8.234375 L 17.84375 0 L 12.0625 0 L 5.984375 -7.875 L 5.984375 0 L 1.453125 0 Z M 5.984375 -11.078125 L 6.515625 -11.078125 C 6.929688 -11.078125 7.285156 -11.082031 7.578125 -11.09375 C 7.867188 -11.113281 8.195312 -11.171875 8.5625 -11.265625 C 8.9375 -11.367188 9.234375 -11.507812 9.453125 -11.6875 C 9.679688 -11.863281 9.875 -12.117188 10.03125 -12.453125 C 10.195312 -12.796875 10.28125 -13.207031 10.28125 -13.6875 C 10.28125 -14.164062 10.195312 -14.570312 10.03125 -14.90625 C 9.875 -15.25 9.679688 -15.507812 9.453125 -15.6875 C 9.234375 -15.863281 8.9375 -16 8.5625 -16.09375 C 8.195312 -16.195312 7.867188 -16.253906 7.578125 -16.265625 C 7.285156 -16.285156 6.929688 -16.296875 6.515625 -16.296875 L 5.984375 -16.296875 Z M 5.984375 -11.078125 "/></g></g><g style="fill:#ffffff;fill-opacity:1;"><g transform="translate(200.557019, 291.59383)"><path style="stroke:none" d="M 19.578125 0 L 13.328125 0 L 5.984375 -8.453125 L 5.984375 0 L 1.453125 0 L 1.453125 -19.921875 L 5.984375 -19.921875 L 5.984375 -11.78125 L 12.8125 -19.921875 L 18.328125 -19.921875 L 10.3125 -10.484375 Z M 19.578125 0 "/></g></g><g style="fill:#ffffff;fill-opacity:1;"><g transform="translate(220.763015, 291.59383)"><path style="stroke:none" d="M 12.84375 -19.921875 L 12.84375 -15.9375 L 5.984375 -15.9375 L 5.984375 -11.96875 L 12.546875 -11.96875 L 12.546875 -7.984375 L 5.984375 -7.984375 L 5.984375 -3.984375 L 12.84375 -3.984375 L 12.84375 0 L 1.453125 0 L 1.453125 -19.921875 Z M 12.84375 -19.921875 "/></g></g><g style="fill:#ffffff;fill-opacity:1;"><g transform="translate(235.971914, 291.59383)"><path style="stroke:none" d="M 0.1875 -15.9375 L 0.1875 -19.921875 L 14.1875 -19.921875 L 14.1875 -15.9375 L 9.46875 -15.9375 L 9.46875 0 L 4.921875 0 L 4.921875 -15.9375 Z M 0.1875 -15.9375 "/></g></g><g style="fill:#ffffff;fill-opacity:1;"><g transform="translate(251.567075, 291.59383)"><path style="stroke:none" d="M 1.453125 -19.921875 L 8.71875 -19.921875 C 10.738281 -19.921875 12.375 -19.394531 13.625 -18.34375 C 14.882812 -17.300781 15.515625 -15.78125 15.515625 -13.78125 C 15.515625 -11.789062 14.878906 -10.226562 13.609375 -9.09375 C 12.335938 -7.957031 10.707031 -7.390625 8.71875 -7.390625 L 5.984375 -7.390625 L 5.984375 0 L 1.453125 0 Z M 5.984375 -11.015625 L 7.265625 -11.015625 C 8.273438 -11.015625 9.109375 -11.21875 9.765625 -11.625 C 10.421875 -12.03125 10.75 -12.703125 10.75 -13.640625 C 10.75 -14.585938 10.421875 -15.265625 9.765625 -15.671875 C 9.109375 -16.085938 8.273438 -16.296875 7.265625 -16.296875 L 5.984375 -16.296875 Z M 5.984375 -11.015625 "/></g></g><g style="fill:#ffffff;fill-opacity:1;"><g transform="translate(268.852047, 291.59383)"><path style="stroke:none" d="M 5.984375 -19.921875 L 5.984375 -3.984375 L 12.84375 -3.984375 L 12.84375 0 L 1.453125 0 L 1.453125 -19.921875 Z M 5.984375 -19.921875 "/></g></g><g style="fill:#ffffff;fill-opacity:1;"><g transform="translate(284.060969, 291.59383)"><path style="stroke:none" d="M 11.5625 -19.921875 L 19.609375 0 L 14.71875 0 L 13.25 -3.984375 L 5.671875 -3.984375 L 4.203125 0 L -0.671875 0 L 7.359375 -19.921875 Z M 11.703125 -7.96875 L 9.484375 -13.765625 L 9.4375 -13.765625 L 7.21875 -7.96875 Z M 11.703125 -7.96875 "/></g></g><g style="fill:#ffffff;fill-opacity:1;"><g transform="translate(303.421991, 291.59383)"><path style="stroke:none" d="M 12.046875 -4.109375 C 12.734375 -4.109375 13.40625 -4.210938 14.0625 -4.421875 C 14.71875 -4.628906 15.195312 -4.828125 15.5 -5.015625 L 15.953125 -5.328125 L 17.890625 -1.46875 C 17.828125 -1.425781 17.738281 -1.363281 17.625 -1.28125 C 17.507812 -1.195312 17.242188 -1.046875 16.828125 -0.828125 C 16.421875 -0.609375 15.984375 -0.421875 15.515625 -0.265625 C 15.054688 -0.109375 14.445312 0.03125 13.6875 0.15625 C 12.925781 0.289062 12.144531 0.359375 11.34375 0.359375 C 9.488281 0.359375 7.734375 -0.09375 6.078125 -1 C 4.421875 -1.90625 3.085938 -3.15625 2.078125 -4.75 C 1.066406 -6.34375 0.5625 -8.066406 0.5625 -9.921875 C 0.5625 -11.316406 0.859375 -12.660156 1.453125 -13.953125 C 2.046875 -15.242188 2.835938 -16.347656 3.828125 -17.265625 C 4.816406 -18.179688 5.96875 -18.910156 7.28125 -19.453125 C 8.601562 -20.003906 9.957031 -20.28125 11.34375 -20.28125 C 12.632812 -20.28125 13.820312 -20.125 14.90625 -19.8125 C 15.988281 -19.507812 16.757812 -19.207031 17.21875 -18.90625 L 17.890625 -18.4375 L 15.953125 -14.578125 C 15.835938 -14.671875 15.664062 -14.785156 15.4375 -14.921875 C 15.21875 -15.066406 14.769531 -15.25 14.09375 -15.46875 C 13.414062 -15.695312 12.734375 -15.8125 12.046875 -15.8125 C 10.953125 -15.8125 9.96875 -15.632812 9.09375 -15.28125 C 8.226562 -14.925781 7.539062 -14.457031 7.03125 -13.875 C 6.53125 -13.300781 6.144531 -12.679688 5.875 -12.015625 C 5.613281 -11.347656 5.484375 -10.664062 5.484375 -9.96875 C 5.484375 -8.457031 6.050781 -7.101562 7.1875 -5.90625 C 8.320312 -4.707031 9.941406 -4.109375 12.046875 -4.109375 Z M 12.046875 -4.109375 "/></g></g><g style="fill:#ffffff;fill-opacity:1;"><g transform="translate(322.807205, 291.59383)"><path style="stroke:none" d="M 12.84375 -19.921875 L 12.84375 -15.9375 L 5.984375 -15.9375 L 5.984375 -11.96875 L 12.546875 -11.96875 L 12.546875 -7.984375 L 5.984375 -7.984375 L 5.984375 -3.984375 L 12.84375 -3.984375 L 12.84375 0 L 1.453125 0 L 1.453125 -19.921875 Z M 12.84375 -19.921875 "/></g></g><g style="fill:#ffffff;fill-opacity:1;"><g transform="translate(338.020775, 291.59383)"><path style="stroke:none" d=""/></g></g><path style="fill:none;stroke-width:4;stroke-linecap:butt;stroke-linejoin:miter;stroke:#ffffff;stroke-opacity:1;stroke-miterlimit:4;" d="M 0.0011433 1.997528 L 409.84492 1.999367 " transform="matrix(0.75,-0.0000700824,0.0000700824,0.75,33.807596,298.490136)"/><g transform="matrix(1,0,0,1,68,308)"><g clip-path="url(#ed497447bd)"><g style="fill:#ffffff;fill-opacity:1;"><g transform="translate(1.131179, 7.11451)"><path style="stroke:none" d="M 1.125 -0.453125 L 2.96875 -0.453125 L 2.96875 0 L 0.640625 0 L 0.640625 -4.21875 L 1.125 -4.21875 Z M 1.125 -0.453125 "/></g></g><g style="fill:#ffffff;fill-opacity:1;"><g transform="translate(9.080793, 7.11451)"><path style="stroke:none" d="M 3.5 -3.75 L 1.125 -3.75 L 1.125 -2.375 L 3.25 -2.375 L 3.25 -1.90625 L 1.125 -1.90625 L 1.125 -0.453125 L 3.578125 -0.453125 L 3.578125 0 L 0.640625 0 L 0.640625 -4.21875 L 3.5 -4.21875 Z M 3.5 -3.75 "/></g></g><g style="fill:#ffffff;fill-opacity:1;"><g transform="translate(17.834568, 7.11451)"><path style="stroke:none" d=""/></g></g><g style="fill:#ffffff;fill-opacity:1;"><g transform="translate(24.313921, 7.11451)"><path style="stroke:none" d="M 4.90625 0 L 4.46875 0 L 4.453125 -3.484375 L 2.921875 -0.453125 L 2.625 -0.453125 L 1.09375 -3.484375 L 1.09375 0 L 0.640625 0 L 0.640625 -4.21875 L 1.234375 -4.21875 L 2.78125 -1.1875 L 4.3125 -4.21875 L 4.90625 -4.21875 Z M 4.90625 0 "/></g></g><g style="fill:#ffffff;fill-opacity:1;"><g transform="translate(34.696592, 7.11451)"><path style="stroke:none" d="M 3.3125 -1.0625 L 1 -1.0625 L 0.53125 0 L 0.03125 0 L 1.921875 -4.21875 L 2.421875 -4.21875 L 4.3125 0 L 3.78125 0 Z M 3.109375 -1.53125 L 2.15625 -3.671875 L 1.21875 -1.53125 Z M 3.109375 -1.53125 "/></g></g><g style="fill:#ffffff;fill-opacity:1;"><g transform="translate(43.854572, 7.11451)"><path style="stroke:none" d="M 3.40625 0 L 2.53125 -1.34375 C 2.40625 -1.332031 2.3125 -1.328125 2.25 -1.328125 L 1.125 -1.328125 L 1.125 0 L 0.640625 0 L 0.640625 -4.21875 L 2.25 -4.21875 C 2.769531 -4.21875 3.175781 -4.09375 3.46875 -3.84375 C 3.757812 -3.601562 3.90625 -3.253906 3.90625 -2.796875 C 3.90625 -2.453125 3.820312 -2.164062 3.65625 -1.9375 C 3.5 -1.707031 3.269531 -1.539062 2.96875 -1.4375 L 3.953125 0 Z M 1.125 -1.796875 L 2.25 -1.796875 C 2.632812 -1.796875 2.925781 -1.878906 3.125 -2.046875 C 3.332031 -2.210938 3.4375 -2.460938 3.4375 -2.796875 C 3.4375 -3.109375 3.332031 -3.34375 3.125 -3.5 C 2.925781 -3.664062 2.632812 -3.75 2.25 -3.75 L 1.125 -3.75 Z M 1.125 -1.796875 "/></g></g><g style="fill:#ffffff;fill-opacity:1;"><g transform="translate(53.042716, 7.11451)"><path style="stroke:none" d="M 2.4375 -4.234375 C 2.726562 -4.234375 3.003906 -4.175781 3.265625 -4.0625 C 3.535156 -3.957031 3.773438 -3.8125 3.984375 -3.625 L 3.703125 -3.25 C 3.347656 -3.601562 2.929688 -3.78125 2.453125 -3.78125 C 1.972656 -3.78125 1.566406 -3.617188 1.234375 -3.296875 C 0.898438 -2.972656 0.734375 -2.578125 0.734375 -2.109375 C 0.734375 -1.648438 0.898438 -1.257812 1.234375 -0.9375 C 1.566406 -0.613281 1.96875 -0.453125 2.4375 -0.453125 C 2.914062 -0.453125 3.335938 -0.617188 3.703125 -0.953125 L 4 -0.625 C 3.53125 -0.1875 3.003906 0.03125 2.421875 0.03125 C 1.816406 0.03125 1.300781 -0.175781 0.875 -0.59375 C 0.445312 -1.007812 0.234375 -1.515625 0.234375 -2.109375 C 0.234375 -2.703125 0.445312 -3.203125 0.875 -3.609375 C 1.3125 -4.023438 1.832031 -4.234375 2.4375 -4.234375 Z M 2.4375 -4.234375 "/></g></g><g style="fill:#ffffff;fill-opacity:1;"><g transform="translate(62.092103, 7.11451)"><path style="stroke:none" d="M 4.15625 0 L 3.671875 0 L 3.671875 -1.859375 L 1.125 -1.859375 L 1.125 0 L 0.640625 0 L 0.640625 -4.21875 L 1.125 -4.21875 L 1.125 -2.3125 L 3.671875 -2.3125 L 3.671875 -4.21875 L 4.15625 -4.21875 Z M 4.15625 0 "/></g></g><g style="fill:#ffffff;fill-opacity:1;"><g transform="translate(71.708586, 7.11451)"><path style="stroke:none" d="M 2.96875 -5.34375 L 2.21875 -4.75 L 1.765625 -4.75 L 2.5 -5.5625 Z M 3.5 -3.75 L 1.125 -3.75 L 1.125 -2.375 L 3.25 -2.375 L 3.25 -1.90625 L 1.125 -1.90625 L 1.125 -0.453125 L 3.578125 -0.453125 L 3.578125 0 L 0.640625 0 L 0.640625 -4.21875 L 3.5 -4.21875 Z M 3.5 -3.75 "/></g></g><g style="fill:#ffffff;fill-opacity:1;"><g transform="translate(80.462361, 7.11451)"><path style="stroke:none" d=""/></g></g><g style="fill:#ffffff;fill-opacity:1;"><g transform="translate(86.941713, 7.11451)"><path style="stroke:none" d="M 4.703125 0.046875 L 4.90625 0.40625 C 4.570312 0.71875 4.210938 0.875 3.828125 0.875 C 3.347656 0.875 2.90625 0.59375 2.5 0.03125 L 2.453125 0.03125 C 1.835938 0.03125 1.3125 -0.175781 0.875 -0.59375 C 0.445312 -1.007812 0.234375 -1.515625 0.234375 -2.109375 C 0.234375 -2.703125 0.445312 -3.203125 0.875 -3.609375 C 1.3125 -4.023438 1.835938 -4.234375 2.453125 -4.234375 C 3.066406 -4.234375 3.585938 -4.023438 4.015625 -3.609375 C 4.441406 -3.203125 4.65625 -2.703125 4.65625 -2.109375 C 4.65625 -1.617188 4.503906 -1.179688 4.203125 -0.796875 C 3.898438 -0.421875 3.507812 -0.171875 3.03125 -0.046875 C 3.320312 0.265625 3.609375 0.421875 3.890625 0.421875 C 4.128906 0.421875 4.398438 0.296875 4.703125 0.046875 Z M 1.234375 -3.28125 C 0.898438 -2.957031 0.734375 -2.566406 0.734375 -2.109375 C 0.734375 -1.648438 0.898438 -1.253906 1.234375 -0.921875 C 1.578125 -0.597656 1.984375 -0.4375 2.453125 -0.4375 C 2.921875 -0.4375 3.320312 -0.597656 3.65625 -0.921875 C 4 -1.253906 4.171875 -1.648438 4.171875 -2.109375 C 4.171875 -2.566406 4 -2.957031 3.65625 -3.28125 C 3.320312 -3.613281 2.921875 -3.78125 2.453125 -3.78125 C 1.984375 -3.78125 1.578125 -3.613281 1.234375 -3.28125 Z M 1.234375 -3.28125 "/></g></g><g style="fill:#ffffff;fill-opacity:1;"><g transform="translate(96.775384, 7.11451)"><path style="stroke:none" d="M 4.09375 -4.21875 L 4.09375 -1.734375 C 4.09375 -1.179688 3.929688 -0.75 3.609375 -0.4375 C 3.296875 -0.125 2.867188 0.03125 2.328125 0.03125 C 1.765625 0.03125 1.328125 -0.125 1.015625 -0.4375 C 0.703125 -0.75 0.546875 -1.179688 0.546875 -1.734375 L 0.546875 -4.21875 L 1.03125 -4.21875 L 1.03125 -1.734375 C 1.03125 -1.328125 1.144531 -1.007812 1.375 -0.78125 C 1.601562 -0.550781 1.914062 -0.4375 2.3125 -0.4375 C 2.71875 -0.4375 3.035156 -0.550781 3.265625 -0.78125 C 3.492188 -1.007812 3.609375 -1.328125 3.609375 -1.734375 L 3.609375 -4.21875 Z M 4.09375 -4.21875 "/></g></g><g style="fill:#ffffff;fill-opacity:1;"><g transform="translate(106.235013, 7.11451)"><path style="stroke:none" d="M 1.125 0 L 0.640625 0 L 0.640625 -4.21875 L 1.125 -4.21875 Z M 1.125 0 "/></g></g><g style="fill:#ffffff;fill-opacity:1;"><g transform="translate(112.822959, 7.11451)"><path style="stroke:none" d=""/></g></g><g style="fill:#ffffff;fill-opacity:1;"><g transform="translate(119.302312, 7.11451)"><path style="stroke:none" d="M 2.25 0 L 1.75 0 L 0.03125 -4.21875 L 0.5625 -4.21875 L 2.015625 -0.5625 L 3.46875 -4.21875 L 3.96875 -4.21875 Z M 2.25 0 "/></g></g><g style="fill:#ffffff;fill-opacity:1;"><g transform="translate(128.140547, 7.11451)"><path style="stroke:none" d="M 2.453125 -4.234375 C 3.066406 -4.234375 3.585938 -4.023438 4.015625 -3.609375 C 4.441406 -3.203125 4.65625 -2.703125 4.65625 -2.109375 C 4.65625 -1.515625 4.441406 -1.007812 4.015625 -0.59375 C 3.585938 -0.175781 3.066406 0.03125 2.453125 0.03125 C 1.835938 0.03125 1.3125 -0.175781 0.875 -0.59375 C 0.445312 -1.007812 0.234375 -1.515625 0.234375 -2.109375 C 0.234375 -2.703125 0.445312 -3.203125 0.875 -3.609375 C 1.3125 -4.023438 1.835938 -4.234375 2.453125 -4.234375 Z M 2.453125 -3.78125 C 1.984375 -3.78125 1.578125 -3.613281 1.234375 -3.28125 C 0.898438 -2.957031 0.734375 -2.566406 0.734375 -2.109375 C 0.734375 -1.648438 0.898438 -1.253906 1.234375 -0.921875 C 1.578125 -0.597656 1.984375 -0.4375 2.453125 -0.4375 C 2.921875 -0.4375 3.320312 -0.597656 3.65625 -0.921875 C 4 -1.253906 4.171875 -1.648438 4.171875 -2.109375 C 4.171875 -2.566406 4 -2.957031 3.65625 -3.28125 C 3.320312 -3.613281 2.921875 -3.78125 2.453125 -3.78125 Z M 2.453125 -3.78125 "/></g></g><g style="fill:#ffffff;fill-opacity:1;"><g transform="translate(137.871654, 7.11451)"><path style="stroke:none" d="M 4.09375 -4.21875 L 4.09375 -1.734375 C 4.09375 -1.179688 3.929688 -0.75 3.609375 -0.4375 C 3.296875 -0.125 2.867188 0.03125 2.328125 0.03125 C 1.765625 0.03125 1.328125 -0.125 1.015625 -0.4375 C 0.703125 -0.75 0.546875 -1.179688 0.546875 -1.734375 L 0.546875 -4.21875 L 1.03125 -4.21875 L 1.03125 -1.734375 C 1.03125 -1.328125 1.144531 -1.007812 1.375 -0.78125 C 1.601562 -0.550781 1.914062 -0.4375 2.3125 -0.4375 C 2.71875 -0.4375 3.035156 -0.550781 3.265625 -0.78125 C 3.492188 -1.007812 3.609375 -1.328125 3.609375 -1.734375 L 3.609375 -4.21875 Z M 4.09375 -4.21875 "/></g></g><g style="fill:#ffffff;fill-opacity:1;"><g transform="translate(147.331291, 7.11451)"><path style="stroke:none" d="M 1.890625 -4.234375 C 2.390625 -4.234375 2.835938 -4.101562 3.234375 -3.84375 L 3.03125 -3.390625 C 2.675781 -3.628906 2.285156 -3.75 1.859375 -3.75 C 1.585938 -3.75 1.367188 -3.695312 1.203125 -3.59375 C 1.046875 -3.5 0.96875 -3.363281 0.96875 -3.1875 C 0.96875 -3.019531 1.023438 -2.878906 1.140625 -2.765625 C 1.253906 -2.648438 1.398438 -2.566406 1.578125 -2.515625 C 1.753906 -2.460938 1.941406 -2.398438 2.140625 -2.328125 C 2.347656 -2.253906 2.539062 -2.179688 2.71875 -2.109375 C 2.894531 -2.035156 3.039062 -1.914062 3.15625 -1.75 C 3.269531 -1.582031 3.328125 -1.378906 3.328125 -1.140625 C 3.328125 -0.785156 3.1875 -0.503906 2.90625 -0.296875 C 2.625 -0.0859375 2.257812 0.015625 1.8125 0.015625 C 1.507812 0.015625 1.210938 -0.0390625 0.921875 -0.15625 C 0.640625 -0.269531 0.394531 -0.425781 0.1875 -0.625 L 0.40625 -1.0625 C 0.601562 -0.875 0.828125 -0.726562 1.078125 -0.625 C 1.328125 -0.519531 1.570312 -0.46875 1.8125 -0.46875 C 2.125 -0.46875 2.363281 -0.523438 2.53125 -0.640625 C 2.707031 -0.753906 2.796875 -0.910156 2.796875 -1.109375 C 2.796875 -1.265625 2.753906 -1.394531 2.671875 -1.5 C 2.585938 -1.601562 2.472656 -1.679688 2.328125 -1.734375 C 2.191406 -1.796875 2.039062 -1.851562 1.875 -1.90625 C 1.707031 -1.957031 1.535156 -2.007812 1.359375 -2.0625 C 1.191406 -2.125 1.035156 -2.195312 0.890625 -2.28125 C 0.753906 -2.363281 0.644531 -2.476562 0.5625 -2.625 C 0.476562 -2.769531 0.4375 -2.941406 0.4375 -3.140625 C 0.4375 -3.472656 0.566406 -3.738281 0.828125 -3.9375 C 1.097656 -4.132812 1.453125 -4.234375 1.890625 -4.234375 Z M 1.890625 -4.234375 "/></g></g><g style="fill:#ffffff;fill-opacity:1;"><g transform="translate(155.843744, 7.11451)"><path style="stroke:none" d=""/></g></g><g style="fill:#ffffff;fill-opacity:1;"><g transform="translate(162.323089, 7.11451)"><path style="stroke:none" d="M 3.40625 0 L 2.53125 -1.34375 C 2.40625 -1.332031 2.3125 -1.328125 2.25 -1.328125 L 1.125 -1.328125 L 1.125 0 L 0.640625 0 L 0.640625 -4.21875 L 2.25 -4.21875 C 2.769531 -4.21875 3.175781 -4.09375 3.46875 -3.84375 C 3.757812 -3.601562 3.90625 -3.253906 3.90625 -2.796875 C 3.90625 -2.453125 3.820312 -2.164062 3.65625 -1.9375 C 3.5 -1.707031 3.269531 -1.539062 2.96875 -1.4375 L 3.953125 0 Z M 1.125 -1.796875 L 2.25 -1.796875 C 2.632812 -1.796875 2.925781 -1.878906 3.125 -2.046875 C 3.332031 -2.210938 3.4375 -2.460938 3.4375 -2.796875 C 3.4375 -3.109375 3.332031 -3.34375 3.125 -3.5 C 2.925781 -3.664062 2.632812 -3.75 2.25 -3.75 L 1.125 -3.75 Z M 1.125 -1.796875 "/></g></g><g style="fill:#ffffff;fill-opacity:1;"><g transform="translate(171.51124, 7.11451)"><path style="stroke:none" d="M 3.3125 -1.0625 L 1 -1.0625 L 0.53125 0 L 0.03125 0 L 1.921875 -4.21875 L 2.421875 -4.21875 L 4.3125 0 L 3.78125 0 Z M 3.109375 -1.53125 L 2.15625 -3.671875 L 1.21875 -1.53125 Z M 3.109375 -1.53125 "/></g></g><g style="fill:#ffffff;fill-opacity:1;"><g transform="translate(180.669228, 7.11451)"><path style="stroke:none" d="M 1.890625 -4.234375 C 2.390625 -4.234375 2.835938 -4.101562 3.234375 -3.84375 L 3.03125 -3.390625 C 2.675781 -3.628906 2.285156 -3.75 1.859375 -3.75 C 1.585938 -3.75 1.367188 -3.695312 1.203125 -3.59375 C 1.046875 -3.5 0.96875 -3.363281 0.96875 -3.1875 C 0.96875 -3.019531 1.023438 -2.878906 1.140625 -2.765625 C 1.253906 -2.648438 1.398438 -2.566406 1.578125 -2.515625 C 1.753906 -2.460938 1.941406 -2.398438 2.140625 -2.328125 C 2.347656 -2.253906 2.539062 -2.179688 2.71875 -2.109375 C 2.894531 -2.035156 3.039062 -1.914062 3.15625 -1.75 C 3.269531 -1.582031 3.328125 -1.378906 3.328125 -1.140625 C 3.328125 -0.785156 3.1875 -0.503906 2.90625 -0.296875 C 2.625 -0.0859375 2.257812 0.015625 1.8125 0.015625 C 1.507812 0.015625 1.210938 -0.0390625 0.921875 -0.15625 C 0.640625 -0.269531 0.394531 -0.425781 0.1875 -0.625 L 0.40625 -1.0625 C 0.601562 -0.875 0.828125 -0.726562 1.078125 -0.625 C 1.328125 -0.519531 1.570312 -0.46875 1.8125 -0.46875 C 2.125 -0.46875 2.363281 -0.523438 2.53125 -0.640625 C 2.707031 -0.753906 2.796875 -0.910156 2.796875 -1.109375 C 2.796875 -1.265625 2.753906 -1.394531 2.671875 -1.5 C 2.585938 -1.601562 2.472656 -1.679688 2.328125 -1.734375 C 2.191406 -1.796875 2.039062 -1.851562 1.875 -1.90625 C 1.707031 -1.957031 1.535156 -2.007812 1.359375 -2.0625 C 1.191406 -2.125 1.035156 -2.195312 0.890625 -2.28125 C 0.753906 -2.363281 0.644531 -2.476562 0.5625 -2.625 C 0.476562 -2.769531 0.4375 -2.941406 0.4375 -3.140625 C 0.4375 -3.472656 0.566406 -3.738281 0.828125 -3.9375 C 1.097656 -4.132812 1.453125 -4.234375 1.890625 -4.234375 Z M 1.890625 -4.234375 "/></g></g><g style="fill:#ffffff;fill-opacity:1;"><g transform="translate(189.181666, 7.11451)"><path style="stroke:none" d="M 1.890625 -4.234375 C 2.390625 -4.234375 2.835938 -4.101562 3.234375 -3.84375 L 3.03125 -3.390625 C 2.675781 -3.628906 2.285156 -3.75 1.859375 -3.75 C 1.585938 -3.75 1.367188 -3.695312 1.203125 -3.59375 C 1.046875 -3.5 0.96875 -3.363281 0.96875 -3.1875 C 0.96875 -3.019531 1.023438 -2.878906 1.140625 -2.765625 C 1.253906 -2.648438 1.398438 -2.566406 1.578125 -2.515625 C 1.753906 -2.460938 1.941406 -2.398438 2.140625 -2.328125 C 2.347656 -2.253906 2.539062 -2.179688 2.71875 -2.109375 C 2.894531 -2.035156 3.039062 -1.914062 3.15625 -1.75 C 3.269531 -1.582031 3.328125 -1.378906 3.328125 -1.140625 C 3.328125 -0.785156 3.1875 -0.503906 2.90625 -0.296875 C 2.625 -0.0859375 2.257812 0.015625 1.8125 0.015625 C 1.507812 0.015625 1.210938 -0.0390625 0.921875 -0.15625 C 0.640625 -0.269531 0.394531 -0.425781 0.1875 -0.625 L 0.40625 -1.0625 C 0.601562 -0.875 0.828125 -0.726562 1.078125 -0.625 C 1.328125 -0.519531 1.570312 -0.46875 1.8125 -0.46875 C 2.125 -0.46875 2.363281 -0.523438 2.53125 -0.640625 C 2.707031 -0.753906 2.796875 -0.910156 2.796875 -1.109375 C 2.796875 -1.265625 2.753906 -1.394531 2.671875 -1.5 C 2.585938 -1.601562 2.472656 -1.679688 2.328125 -1.734375 C 2.191406 -1.796875 2.039062 -1.851562 1.875 -1.90625 C 1.707031 -1.957031 1.535156 -2.007812 1.359375 -2.0625 C 1.191406 -2.125 1.035156 -2.195312 0.890625 -2.28125 C 0.753906 -2.363281 0.644531 -2.476562 0.5625 -2.625 C 0.476562 -2.769531 0.4375 -2.941406 0.4375 -3.140625 C 0.4375 -3.472656 0.566406 -3.738281 0.828125 -3.9375 C 1.097656 -4.132812 1.453125 -4.234375 1.890625 -4.234375 Z M 1.890625 -4.234375 "/></g></g><g style="fill:#ffffff;fill-opacity:1;"><g transform="translate(197.694135, 7.11451)"><path style="stroke:none" d="M 3.5 -3.75 L 1.125 -3.75 L 1.125 -2.375 L 3.25 -2.375 L 3.25 -1.90625 L 1.125 -1.90625 L 1.125 -0.453125 L 3.578125 -0.453125 L 3.578125 0 L 0.640625 0 L 0.640625 -4.21875 L 3.5 -4.21875 Z M 3.5 -3.75 "/></g></g><g style="fill:#ffffff;fill-opacity:1;"><g transform="translate(206.44791, 7.11451)"><path style="stroke:none" d="M 4.90625 0 L 4.46875 0 L 4.453125 -3.484375 L 2.921875 -0.453125 L 2.625 -0.453125 L 1.09375 -3.484375 L 1.09375 0 L 0.640625 0 L 0.640625 -4.21875 L 1.234375 -4.21875 L 2.78125 -1.1875 L 4.3125 -4.21875 L 4.90625 -4.21875 Z M 4.90625 0 "/></g></g><g style="fill:#ffffff;fill-opacity:1;"><g transform="translate(216.830566, 7.11451)"><path style="stroke:none" d="M 0.640625 -4.21875 L 2.421875 -4.21875 C 2.847656 -4.21875 3.179688 -4.125 3.421875 -3.9375 C 3.660156 -3.75 3.78125 -3.492188 3.78125 -3.171875 C 3.78125 -2.921875 3.710938 -2.710938 3.578125 -2.546875 C 3.441406 -2.378906 3.25 -2.269531 3 -2.21875 C 3.3125 -2.164062 3.550781 -2.046875 3.71875 -1.859375 C 3.882812 -1.671875 3.96875 -1.429688 3.96875 -1.140625 C 3.96875 -0.785156 3.832031 -0.503906 3.5625 -0.296875 C 3.289062 -0.0976562 2.921875 0 2.453125 0 L 0.640625 0 Z M 1.125 -3.75 L 1.125 -2.40625 L 2.390625 -2.40625 C 2.679688 -2.40625 2.90625 -2.460938 3.0625 -2.578125 C 3.21875 -2.691406 3.296875 -2.863281 3.296875 -3.09375 C 3.296875 -3.300781 3.21875 -3.460938 3.0625 -3.578125 C 2.90625 -3.691406 2.679688 -3.75 2.390625 -3.75 Z M 1.125 -1.9375 L 1.125 -0.453125 L 2.390625 -0.453125 C 2.734375 -0.453125 3 -0.515625 3.1875 -0.640625 C 3.382812 -0.773438 3.484375 -0.96875 3.484375 -1.21875 C 3.484375 -1.445312 3.382812 -1.625 3.1875 -1.75 C 3 -1.875 2.734375 -1.9375 2.390625 -1.9375 Z M 1.125 -1.9375 "/></g></g><g style="fill:#ffffff;fill-opacity:1;"><g transform="translate(225.976495, 7.11451)"><path style="stroke:none" d="M 1.125 -0.453125 L 2.96875 -0.453125 L 2.96875 0 L 0.640625 0 L 0.640625 -4.21875 L 1.125 -4.21875 Z M 1.125 -0.453125 "/></g></g><g style="fill:#ffffff;fill-opacity:1;"><g transform="translate(233.921845, 7.11451)"><path style="stroke:none" d="M 3.5 -3.75 L 1.125 -3.75 L 1.125 -2.375 L 3.25 -2.375 L 3.25 -1.90625 L 1.125 -1.90625 L 1.125 -0.453125 L 3.578125 -0.453125 L 3.578125 0 L 0.640625 0 L 0.640625 -4.21875 L 3.5 -4.21875 Z M 3.5 -3.75 "/></g></g></g></g></g></svg>